<svg width="20" height="14" viewBox="0 0 20 14" fill="none" xmlns="http://www.w3.org/2000/svg">
<path d="M20 4.81612H0V0.793116C0 0.602686 0.154414 0.448273 0.344843 0.448273H19.6552C19.8456 0.448273 20 0.602686 20 0.793116L20 4.81612Z" fill="#FAB446"/>
<path d="M19.6551 13.5517H0.344843C0.154414 13.5517 0 13.3973 0 13.2069V9.1839H20V13.2069C20 13.3973 19.8455 13.5517 19.6551 13.5517Z" fill="#73AF00"/>
<path d="M20 4.81604H0V9.18361H20V4.81604Z" fill="#F5F5F5"/>
<path d="M9.99992 8.85345C8.97789 8.85345 8.14648 8.02205 8.14648 7.00001C8.14648 5.97798 8.97789 5.14658 9.99992 5.14658C11.022 5.14658 11.8534 5.97798 11.8534 7.00001C11.8534 8.02205 11.022 8.85345 9.99992 8.85345ZM9.99992 5.49138C9.16797 5.49138 8.49129 6.16806 8.49129 7.00001C8.49129 7.83197 9.16797 8.50865 9.99992 8.50865C10.8319 8.50865 11.5086 7.83197 11.5086 7.00001C11.5086 6.16806 10.8319 5.49138 9.99992 5.49138Z" fill="#41479B"/>
<path d="M9.99991 7.21012C10.116 7.21012 10.21 7.11605 10.21 7C10.21 6.88396 10.116 6.78989 9.99991 6.78989C9.88387 6.78989 9.78979 6.88396 9.78979 7C9.78979 7.11605 9.88387 7.21012 9.99991 7.21012Z" fill="#41479B"/>
<path d="M9.99986 7.03154L9.46588 7.08544L8.31885 7.03154V6.96849L9.46588 6.91458L9.99986 6.96849V7.03154Z" fill="#41479B"/>
<path d="M10 7.03154L10.534 7.08544L11.681 7.03154V6.96849L10.534 6.91458L10 6.96849V7.03154Z" fill="#41479B"/>
<path d="M9.96846 7.00002L9.91455 6.46603L9.96846 5.319H10.0315L10.0854 6.46603L10.0315 7.00002H9.96846Z" fill="#41479B"/>
<path d="M9.96846 7L9.91455 7.53398L9.96846 8.68102H10.0315L10.0854 7.53398L10.0315 7H9.96846Z" fill="#41479B"/>
<path d="M9.97773 7.02227L9.56203 6.68285L8.78906 5.83363L8.83363 5.78906L9.68285 6.56203L10.0223 6.97773L9.97773 7.02227Z" fill="#41479B"/>
<path d="M9.97754 7.02228L10.317 7.43799L11.1662 8.21096L11.2107 8.16638L10.4378 7.31717L10.0221 6.97775L9.97754 7.02228Z" fill="#41479B"/>
<path d="M9.97754 6.97773L10.317 6.56203L11.1662 5.78906L11.2107 5.83363L10.4378 6.68285L10.0221 7.02227L9.97754 6.97773Z" fill="#41479B"/>
<path d="M9.97773 6.97775L9.56203 7.31717L8.78906 8.16638L8.83363 8.21096L9.68285 7.43799L10.0223 7.02228L9.97773 6.97775Z" fill="#41479B"/>
<path d="M10.012 7.02914L9.53927 7.28328L8.45895 7.67242L8.43481 7.61418L9.47392 7.12543L9.98786 6.97086L10.012 7.02914Z" fill="#41479B"/>
<path d="M10.0119 7.02914L10.5259 6.87457L11.565 6.38582L11.5408 6.32758L10.4605 6.71672L9.98779 6.97086L10.0119 7.02914Z" fill="#41479B"/>
<path d="M9.97067 7.01209L9.71653 6.53936L9.32739 5.45905L9.38563 5.43491L9.87438 6.47401L10.029 6.98795L9.97067 7.01209Z" fill="#41479B"/>
<path d="M9.9707 7.01209L10.1253 7.52603L10.614 8.56513L10.6723 8.54099L10.2831 7.46068L10.029 6.98795L9.9707 7.01209Z" fill="#41479B"/>
<path d="M9.98786 7.02914L9.47392 6.87457L8.43481 6.38582L8.45895 6.32758L9.53927 6.71672L10.012 6.97086L9.98786 7.02914Z" fill="#41479B"/>
<path d="M9.98779 7.02914L10.4605 7.28328L11.5408 7.67242L11.565 7.61418L10.5259 7.12543L10.0119 6.97086L9.98779 7.02914Z" fill="#41479B"/>
<path d="M9.9707 6.98795L10.1253 6.47401L10.614 5.43491L10.6723 5.45905L10.2831 6.53936L10.029 7.01209L9.9707 6.98795Z" fill="#41479B"/>
<path d="M9.97067 6.98795L9.71653 7.46068L9.32739 8.54099L9.38563 8.56513L9.87438 7.52603L10.029 7.01209L9.97067 6.98795Z" fill="#41479B"/>
<path d="M9.99999 7.28346C10.1565 7.28346 10.2834 7.15656 10.2834 7.00002C10.2834 6.84348 10.1565 6.71658 9.99999 6.71658C9.84345 6.71658 9.71655 6.84348 9.71655 7.00002C9.71655 7.15656 9.84345 7.28346 9.99999 7.28346Z" fill="#F5F5F5"/>
<path d="M10 7.16997C10.0939 7.16997 10.17 7.09388 10.17 7.00001C10.17 6.90614 10.0939 6.83005 10 6.83005C9.90617 6.83005 9.83008 6.90614 9.83008 7.00001C9.83008 7.09388 9.90617 7.16997 10 7.16997Z" fill="#41479B"/>
</svg>
