<svg width="179" height="63" viewBox="0 0 179 63" fill="none" xmlns="http://www.w3.org/2000/svg">
<path d="M5.97775 53.0445V59.0243C5.97775 59.5414 5.81614 59.9939 5.49291 60.3172C5.16968 60.6404 4.71716 60.802 4.16767 60.802C3.58586 60.802 3.10101 60.6081 2.77779 60.2525C2.45456 59.897 2.26062 59.3798 2.26062 58.7657H2.74546C2.74546 59.2182 2.84243 59.6061 3.06869 59.9293C3.29495 60.2202 3.6505 60.3818 4.13534 60.3818C4.58786 60.3818 4.94342 60.2525 5.13736 59.9939C5.33129 59.7354 5.46058 59.4121 5.46058 59.0243V53.0445H5.97775Z" fill="#ffffff"/>
<path d="M16.8056 58.7337H13.1531L12.4097 60.7054H11.8602L14.6723 53.2065H15.2218L18.0339 60.7054H17.4844L16.8056 58.7337ZM16.644 58.3458L14.9632 53.8529L13.2824 58.3458H16.644Z" fill="#ffffff"/>
<path d="M29.4118 60.7054H28.9269L24.4017 53.8206V60.7054H23.9169V53.0126H24.4017L28.9269 59.865V53.0126H29.4118V60.7054Z" fill="#ffffff"/>
<path d="M40.9831 54.0469C41.6942 54.7257 42.0497 55.663 42.0497 56.8913C42.0497 58.1196 41.6942 59.057 40.9831 59.7034C40.272 60.3822 39.2699 60.7054 37.977 60.7054H35.8114V53.0126H37.977C39.2699 53.0449 40.272 53.3681 40.9831 54.0469ZM40.6275 59.4125C41.2416 58.7984 41.5325 57.958 41.5325 56.8913C41.5325 55.8247 41.2416 54.9519 40.6275 54.3701C40.0134 53.756 39.1407 53.4651 37.977 53.4651H36.2962V60.3175H37.977C39.1407 60.3175 40.0134 59.9943 40.6275 59.4125Z" fill="#ffffff"/>
<path d="M48.5792 53.0449V57.861C48.5792 58.7337 48.7731 59.3801 49.161 59.768C49.5489 60.1559 50.0984 60.3822 50.7772 60.3822C51.4559 60.3822 51.9731 60.1882 52.361 59.768C52.7489 59.3478 52.9428 58.7337 52.9428 57.861V53.0449H53.4276V57.8286C53.4276 58.8306 53.2014 59.5741 52.7165 60.0589C52.2317 60.5438 51.5852 60.8023 50.7772 60.8023C49.9691 60.8023 49.3226 60.5438 48.8378 60.0589C48.3529 59.5741 48.0944 58.8306 48.0944 57.8286V53.0449H48.5792Z" fill="#ffffff"/>
<path d="M98.4538 57.4084C98.7447 57.764 98.9063 58.1842 98.9063 58.669C98.9063 59.0569 98.8094 59.4125 98.6154 59.7357C98.4215 60.0589 98.1629 60.2852 97.775 60.4791C97.4195 60.6731 96.967 60.7377 96.4175 60.7377H93.9609V53.0449H96.3528C97.1286 53.0449 97.7104 53.2065 98.0983 53.562C98.4861 53.9176 98.6801 54.3701 98.6801 54.9519C98.6801 55.4368 98.5508 55.8246 98.2922 56.1479C98.0336 56.4388 97.6781 56.665 97.2902 56.762C97.775 56.8266 98.1629 57.0529 98.4538 57.4084ZM94.5104 56.5357H96.4498C97.0316 56.5357 97.4841 56.4064 97.775 56.1155C98.0983 55.8569 98.2276 55.4691 98.2276 54.9842C98.2276 54.5317 98.0659 54.1438 97.775 53.8853C97.4841 53.6267 96.9993 53.4651 96.3852 53.4651H94.5104V56.5357ZM97.9043 59.865C98.2599 59.5741 98.4215 59.1539 98.4215 58.6367C98.4215 58.1195 98.2276 57.7317 97.872 57.4084C97.5165 57.1175 97.0316 56.9559 96.3852 56.9559H94.5104V60.2852H96.4175C97.0639 60.2852 97.5488 60.1559 97.9043 59.865Z" fill="#ffffff"/>
<path d="M106.696 60.3175C106.114 59.9943 105.694 59.5095 105.371 58.9276C105.047 58.3458 104.886 57.667 104.886 56.8913C104.886 56.1479 105.047 55.4691 105.371 54.855C105.694 54.2731 106.146 53.7883 106.696 53.4651C107.245 53.1418 107.892 52.9802 108.603 52.9802C109.314 52.9802 109.96 53.1418 110.51 53.4651C111.059 53.7883 111.512 54.2731 111.835 54.855C112.158 55.4368 112.32 56.1155 112.32 56.8913C112.32 57.6347 112.158 58.3135 111.835 58.9276C111.512 59.5418 111.059 59.9943 110.51 60.3175C109.96 60.6407 109.314 60.8024 108.603 60.8024C107.924 60.8024 107.278 60.6407 106.696 60.3175ZM110.251 59.9296C110.736 59.6387 111.124 59.2509 111.415 58.7014C111.706 58.1519 111.835 57.5701 111.835 56.859C111.835 56.1479 111.706 55.5337 111.415 55.0166C111.124 54.4994 110.736 54.0792 110.251 53.7883C109.766 53.4974 109.217 53.3681 108.603 53.3681C107.989 53.3681 107.439 53.4974 106.954 53.7883C106.47 54.0792 106.082 54.4671 105.791 55.0166C105.5 55.5337 105.371 56.1479 105.371 56.859C105.371 57.5701 105.5 58.1842 105.791 58.7014C106.082 59.2185 106.47 59.6387 106.954 59.9296C107.439 60.2205 107.989 60.3498 108.603 60.3498C109.217 60.3822 109.766 60.2205 110.251 59.9296Z" fill="#ffffff"/>
<path d="M119.108 53.0449V57.861C119.108 58.7337 119.302 59.3801 119.69 59.768C120.078 60.1559 120.627 60.3822 121.306 60.3822C121.985 60.3822 122.502 60.1882 122.89 59.768C123.278 59.3478 123.472 58.7337 123.472 57.861V53.0449H123.957V57.8286C123.957 58.8306 123.73 59.5741 123.245 60.0589C122.761 60.5438 122.114 60.8023 121.306 60.8023C120.498 60.8023 119.852 60.5438 119.367 60.0589C118.882 59.5741 118.623 58.8306 118.623 57.8286V53.0449H119.108Z" fill="#ffffff"/>
<path d="M134.817 53.0449V53.4651H132.619V60.7377H132.134V53.4651H129.937V53.0449H134.817Z" fill="#ffffff"/>
<path d="M141.314 53.0449V60.7377H140.829V53.0449H141.314Z" fill="#ffffff"/>
<path d="M154.534 62.2892L152.595 60.6084C152.207 60.7377 151.819 60.8024 151.399 60.8024C150.688 60.8024 150.041 60.6407 149.492 60.3175C148.942 59.9943 148.49 59.5095 148.166 58.9276C147.843 58.3458 147.682 57.667 147.682 56.8913C147.682 56.1479 147.843 55.4691 148.166 54.855C148.49 54.2731 148.942 53.7883 149.492 53.4651C150.041 53.1418 150.688 52.9802 151.399 52.9802C152.11 52.9802 152.756 53.1418 153.306 53.4651C153.855 53.7883 154.308 54.2731 154.631 54.855C154.954 55.4368 155.116 56.1155 155.116 56.8913C155.116 57.6994 154.922 58.4105 154.566 59.0246C154.211 59.6387 153.694 60.1236 153.079 60.4145L155.245 62.2569H154.534V62.2892ZM148.554 58.7337C148.845 59.2509 149.233 59.6711 149.718 59.962C150.203 60.2529 150.752 60.3822 151.366 60.3822C151.98 60.3822 152.53 60.2529 153.015 59.962C153.5 59.6711 153.888 59.2832 154.178 58.7337C154.469 58.1842 154.599 57.6024 154.599 56.8913C154.599 56.1802 154.469 55.5661 154.178 55.0489C153.888 54.5317 153.5 54.1115 153.015 53.8206C152.53 53.5297 151.98 53.4004 151.366 53.4004C150.752 53.4004 150.203 53.5297 149.718 53.8206C149.233 54.1115 148.845 54.4994 148.554 55.0489C148.263 55.5661 148.134 56.1802 148.134 56.8913C148.134 57.6024 148.296 58.2165 148.554 58.7337Z" fill="#ffffff"/>
<path d="M161.872 53.0449V57.861C161.872 58.7337 162.065 59.3801 162.453 59.768C162.841 60.1559 163.391 60.3822 164.07 60.3822C164.748 60.3822 165.265 60.1882 165.653 59.768C166.041 59.3478 166.235 58.7337 166.235 57.861V53.0449H166.72V57.8286C166.72 58.8306 166.494 59.5741 166.009 60.0589C165.524 60.5438 164.878 60.8023 164.07 60.8023C163.261 60.8023 162.615 60.5438 162.13 60.0589C161.645 59.5741 161.387 58.8306 161.387 57.8286V53.0449H161.872Z" fill="#ffffff"/>
<path d="M173.831 53.4328V56.6327H176.901V57.0529H173.831V60.2852H177.225V60.7054H173.346V53.0126H177.225V53.4328H173.831Z" fill="#ffffff"/>
<path d="M1 29.4815C7.91709 4.78684 70.5588 38.6612 90.3081 18.3301C90.3081 18.3301 83.4233 67.6225 66.7124 61.7397C66.7124 61.7397 49.9045 55.9539 97.3221 28.1563C97.3221 28.1563 117.944 16.4554 117.395 3.26766C117.362 2.26565 114.744 -10.0817 97.2575 28.2532C97.2575 28.2532 91.8596 42.249 92.3121 48.3257C92.3121 48.3257 95.803 34.0067 102.785 32.0997C102.785 32.0997 111.383 30.3865 105.597 42.4107C105.597 42.4107 100.36 50.0712 97.3221 47.0975C97.3221 47.0975 94.3484 40.0511 124.215 42.4753C150.526 44.5763 157.378 24.6654 178 43.2834" stroke="#ffffff" stroke-miterlimit="10" stroke-linecap="round" stroke-linejoin="round"/>
</svg>
