<?xml version="1.0" standalone="no"?>
<!DOCTYPE svg PUBLIC "-//W3C//DTD SVG 20010904//EN"
 "http://www.w3.org/TR/2001/REC-SVG-20010904/DTD/svg10.dtd">
<svg version="1.0" xmlns="http://www.w3.org/2000/svg"
 width="1056.000000pt" height="1056.000000pt" viewBox="0 0 1056.000000 1056.000000"
 preserveAspectRatio="xMidYMid meet">
<metadata>
Created by potrace 1.14, written by Peter Selinger 2001-2017
</metadata>
<g transform="translate(0.000000,1056.000000) scale(0.100000,-0.100000)"
fill="#000000" stroke="none">
<path d="M9085 10312 c-95 -28 -225 -106 -344 -207 -73 -62 -242 -241 -323
-342 -18 -23 -41 -52 -52 -65 -39 -49 -213 -285 -241 -328 -17 -25 -36 -51
-42 -58 -7 -7 -13 -17 -13 -22 0 -5 -6 -15 -13 -22 -7 -7 -28 -38 -47 -68 -19
-30 -37 -57 -40 -60 -3 -3 -19 -27 -34 -54 -32 -55 -71 -115 -86 -133 -5 -7
-10 -14 -10 -17 0 -3 -26 -47 -57 -98 -31 -51 -71 -118 -88 -148 -18 -30 -66
-113 -107 -185 -100 -173 -211 -377 -285 -520 -20 -38 -39 -72 -42 -75 -6 -5
-61 -113 -281 -550 -160 -319 -357 -725 -437 -900 -14 -30 -60 -129 -102 -220
-42 -91 -92 -199 -111 -241 -36 -77 -41 -82 -136 -134 -22 -12 -77 -45 -123
-74 -45 -28 -85 -51 -87 -51 -3 0 -24 -13 -47 -29 -23 -15 -60 -38 -82 -50
-22 -12 -53 -30 -70 -41 -16 -11 -46 -29 -65 -40 -19 -11 -53 -31 -75 -45 -22
-14 -47 -28 -55 -32 -8 -3 -17 -9 -20 -12 -9 -10 -44 -31 -62 -37 -10 -4 -18
-10 -18 -15 0 -5 -4 -9 -9 -9 -10 0 -175 -100 -198 -120 -7 -5 -14 -10 -17
-10 -3 0 -97 -58 -210 -130 -112 -71 -207 -130 -210 -130 -6 0 1 41 11 70 3 8
7 24 8 35 1 11 15 67 29 124 15 57 31 124 36 150 6 25 17 75 25 111 9 36 18
79 21 95 3 17 7 37 10 45 3 8 8 29 11 45 2 17 11 55 18 85 7 30 16 69 18 85 3
17 12 63 21 102 20 94 28 135 29 151 0 6 3 12 6 12 3 0 7 10 7 23 3 33 12 89
33 191 23 107 34 164 36 189 2 9 3 18 5 20 1 1 4 16 6 32 3 17 19 104 35 194
17 90 32 178 34 195 2 17 4 31 5 31 1 0 3 11 5 25 3 23 8 55 21 135 3 17 10
55 15 85 5 30 12 85 15 121 6 63 5 67 -21 87 -15 12 -41 22 -57 22 -36 0 -78
-42 -79 -81 -1 -16 -2 -32 -3 -36 -2 -7 -9 -53 -22 -138 -2 -16 -7 -41 -9 -55
-3 -14 -8 -47 -10 -74 -3 -27 -8 -53 -12 -59 -3 -5 -8 -29 -9 -51 -2 -23 -13
-90 -24 -151 -24 -128 -37 -198 -45 -240 -3 -16 -12 -64 -20 -105 -8 -41 -16
-86 -19 -100 -5 -30 -46 -237 -52 -265 -2 -11 -6 -31 -9 -45 -3 -14 -7 -34 -9
-45 -8 -36 -35 -160 -40 -185 -11 -52 -21 -97 -33 -150 -3 -14 -7 -34 -8 -45
-2 -11 -4 -20 -5 -20 -1 0 -4 -11 -6 -25 -2 -14 -11 -52 -19 -85 -9 -33 -17
-69 -19 -80 -11 -51 -67 -284 -76 -315 -6 -19 -13 -48 -16 -65 -5 -28 -10 -52
-34 -144 -8 -30 -20 -45 -48 -62 -40 -25 -524 -347 -583 -388 -20 -14 -45 -32
-55 -39 -38 -25 -249 -172 -259 -179 -48 -38 -85 -63 -93 -63 -6 0 -12 -3 -14
-8 -4 -9 -287 -218 -335 -247 -19 -12 -31 -24 -27 -28 4 -4 2 -7 -4 -7 -10 0
-85 -55 -247 -180 -82 -63 -208 -163 -215 -170 -3 -3 -21 -17 -42 -32 -20 -15
-42 -33 -50 -40 -19 -19 -79 -69 -119 -100 -20 -15 -46 -37 -60 -50 -14 -13
-47 -42 -75 -65 -167 -140 -339 -299 -518 -478 -148 -147 -276 -285 -276 -296
0 -5 -7 -9 -15 -9 -8 0 -15 -4 -15 -8 0 -5 -12 -22 -26 -38 -230 -261 -478
-641 -543 -829 -8 -22 -18 -51 -24 -65 -6 -14 -11 -27 -12 -30 0 -3 -8 -30
-17 -60 -10 -30 -20 -71 -23 -90 -3 -19 -8 -48 -12 -65 -9 -46 -11 -212 -2
-258 4 -23 9 -55 12 -72 10 -59 82 -226 106 -245 4 -3 18 -21 31 -40 35 -50
115 -126 179 -170 59 -39 151 -90 173 -94 7 -2 26 -8 41 -14 16 -7 36 -12 46
-12 10 0 21 -3 25 -7 4 -5 11 -8 14 -8 7 -1 105 -20 172 -34 19 -4 94 -6 165
-5 165 3 229 10 334 41 29 8 59 16 65 17 6 1 21 7 33 14 12 7 26 12 32 12 12
0 157 69 216 103 223 127 471 356 680 627 36 47 71 92 78 101 7 8 17 23 22 32
6 8 37 55 70 104 66 98 70 104 103 159 30 52 46 78 52 84 3 3 13 21 24 40 34
65 89 165 118 212 15 27 26 48 23 48 -2 0 11 26 28 58 18 31 41 75 51 97 11
22 36 76 58 119 21 44 38 85 38 91 0 7 6 18 14 24 7 6 16 24 19 40 3 16 12 35
19 42 7 8 14 22 16 32 2 9 17 48 33 85 43 96 191 464 194 482 0 3 11 32 24 65
38 98 102 277 113 315 6 19 15 41 20 48 6 6 8 12 5 12 -5 0 47 161 70 220 3 8
7 20 8 25 2 6 15 51 31 100 15 50 29 95 30 100 1 6 9 30 17 55 15 47 58 188
82 275 37 134 45 165 45 167 -1 2 3 15 9 31 6 15 13 38 16 50 14 67 82 304 90
318 8 13 121 89 183 124 9 6 32 20 49 33 17 12 36 22 42 22 6 0 11 5 11 10 0
6 5 10 10 10 6 0 23 8 38 19 69 48 470 296 757 468 50 29 97 58 105 63 15 9
112 67 181 107 l38 23 -9 -28 c-4 -15 -25 -72 -45 -127 -139 -377 -384 -1167
-441 -1417 -1 -5 -3 -11 -4 -15 -2 -5 -4 -12 -5 -18 -1 -5 -5 -17 -8 -25 -11
-28 -56 -226 -59 -257 -1 -7 -5 -13 -10 -13 -5 0 -7 -4 -4 -8 3 -4 0 -28 -5
-53 -6 -24 -13 -55 -15 -69 -3 -14 -9 -41 -14 -60 -9 -36 -20 -96 -25 -140 -2
-14 -4 -25 -5 -25 -2 0 -8 -30 -15 -80 -3 -22 -7 -49 -9 -60 -2 -11 -6 -42
-10 -70 -11 -85 -17 -138 -22 -180 -9 -81 -11 -381 -2 -413 6 -24 18 -37 43
-48 52 -21 99 3 111 57 7 34 8 38 28 104 16 53 21 72 29 110 2 6 6 15 9 21 4
6 9 21 12 35 2 13 20 70 39 126 20 56 33 104 29 107 -3 3 -1 6 5 6 5 0 10 6
10 13 1 19 110 307 175 462 77 184 212 457 289 586 34 57 67 113 73 124 23 41
120 180 128 183 4 2 8 8 8 13 0 6 5 15 10 22 6 7 31 39 58 72 109 138 216 244
362 358 66 52 220 133 307 161 68 22 227 27 327 10 43 -8 107 -28 142 -45 65
-31 164 -118 164 -144 0 -8 3 -15 8 -15 8 0 31 -48 37 -79 2 -12 7 -25 10 -31
16 -26 23 -221 11 -310 -3 -25 -8 -61 -11 -81 -2 -19 -16 -80 -31 -135 -14
-54 -27 -106 -29 -114 -1 -8 -7 -26 -12 -40 -6 -14 -18 -45 -26 -70 -22 -64
-66 -180 -82 -215 -53 -117 -65 -147 -65 -155 0 -6 -5 -10 -11 -10 -5 0 -8 -4
-5 -9 6 -9 -95 -169 -130 -206 -11 -11 -36 -43 -57 -70 -97 -127 -315 -350
-362 -370 -16 -7 -58 -16 -92 -19 -35 -4 -68 -9 -75 -11 -7 -2 -31 -7 -53 -9
-67 -9 -109 -15 -135 -21 -59 -13 -77 -16 -116 -19 -23 -2 -46 -6 -50 -9 -5
-3 -27 -8 -49 -11 -51 -8 -84 -14 -115 -21 -14 -4 -34 -8 -45 -9 -63 -11 -95
-58 -75 -111 8 -21 130 -124 130 -110 0 3 12 -1 28 -9 73 -41 194 -51 307 -26
80 18 262 113 365 191 103 78 331 303 420 413 30 38 70 85 87 105 18 20 33 40
33 44 0 5 7 15 15 24 29 28 90 127 120 193 17 36 35 68 40 72 6 4 7 8 3 8 -3
0 9 37 28 83 46 107 47 111 77 187 31 83 89 275 101 340 2 14 9 45 14 70 36
158 32 392 -9 519 -24 74 -81 171 -134 227 -28 29 -113 87 -159 108 -111 51
-201 69 -341 70 -177 1 -271 -23 -433 -109 -131 -70 -235 -149 -362 -275 -128
-128 -155 -158 -220 -245 -25 -33 -47 -62 -51 -65 -13 -11 -160 -241 -205
-320 -27 -47 -52 -86 -56 -88 -5 -2 -8 -12 -8 -22 0 -10 -4 -20 -8 -22 -8 -3
-133 -251 -187 -373 -27 -59 -108 -256 -158 -385 -14 -36 -26 -60 -27 -53 0
20 69 359 79 386 5 14 7 28 4 31 -3 3 0 12 7 21 7 8 10 15 8 15 -3 0 1 26 9
58 7 31 15 64 18 74 15 65 89 341 100 375 8 23 17 54 19 69 3 14 16 60 30 103
13 42 34 110 46 151 12 41 27 89 33 105 7 17 12 33 13 38 1 4 2 8 4 10 1 1 3
9 5 17 5 29 75 245 84 260 5 9 12 31 16 50 4 19 11 41 16 50 4 8 24 65 44 125
33 101 86 251 105 300 4 11 22 61 40 110 28 77 64 135 85 135 8 0 240 146 359
226 59 41 112 74 116 74 5 0 10 3 12 8 5 12 78 64 78 55 0 -4 4 -3 8 2 4 6 66
53 137 104 72 52 133 99 137 105 5 7 8 7 8 1 0 -6 3 -5 8 1 4 6 57 49 117 95
61 46 135 103 165 128 103 83 285 235 315 262 17 15 44 40 62 56 280 251 570
544 742 753 30 36 57 67 60 70 7 5 34 41 132 170 115 151 259 368 334 505 58
104 109 209 107 218 -1 4 1 7 6 7 4 0 12 12 18 28 6 15 27 65 46 112 61 147
113 307 134 410 2 14 9 39 14 55 9 32 27 141 38 240 9 78 8 361 -2 400 -45
184 -157 338 -279 382 -69 25 -177 27 -252 5z m200 -158 c74 -31 138 -127 172
-258 12 -48 14 -93 9 -216 -3 -85 -8 -166 -10 -180 -12 -60 -17 -87 -21 -120
-3 -19 -12 -62 -20 -95 -9 -33 -17 -67 -19 -75 -4 -27 -19 -75 -25 -85 -3 -5
-7 -19 -8 -30 -4 -25 -93 -256 -104 -271 -5 -6 -6 -14 -2 -17 3 -4 1 -7 -5 -7
-7 0 -12 -6 -12 -14 0 -17 -102 -220 -112 -224 -5 -2 -8 -8 -8 -14 0 -9 -63
-120 -108 -188 -12 -19 -27 -42 -32 -50 -25 -40 -164 -237 -186 -264 -13 -17
-28 -35 -32 -41 -23 -32 -78 -102 -87 -111 -5 -6 -26 -30 -45 -54 -171 -208
-568 -612 -746 -760 -11 -9 -42 -36 -70 -60 -45 -40 -132 -115 -188 -162 -12
-10 -52 -43 -91 -74 -38 -30 -77 -61 -86 -68 -9 -7 -63 -49 -120 -92 -57 -43
-106 -81 -109 -84 -5 -5 -237 -171 -368 -263 -28 -20 -56 -37 -61 -37 -5 0
-11 -3 -13 -7 -4 -11 -97 -73 -107 -73 -5 0 -11 -4 -13 -8 -4 -9 -109 -75
-113 -70 -1 2 14 39 36 83 21 44 60 127 87 185 196 416 249 524 430 888 158
315 258 511 329 642 17 30 50 93 74 140 24 47 49 91 56 98 7 7 13 20 13 28 0
8 4 14 9 14 5 0 12 14 16 30 4 17 11 30 16 30 5 0 9 4 9 9 0 5 22 47 48 93 26
46 51 90 55 98 4 8 13 24 20 35 48 81 195 330 207 352 8 15 19 32 23 38 12 14
130 203 142 226 5 10 13 19 17 19 5 0 8 5 8 10 0 10 38 69 51 80 3 3 12 16 19
29 18 35 133 195 142 199 4 2 8 10 8 17 0 7 3 15 8 17 4 2 14 13 22 25 22 31
142 186 154 199 6 6 31 35 56 65 123 148 321 324 435 388 90 50 184 63 250 35z
m-4715 -5520 c-13 -40 -111 -385 -114 -404 -1 -8 -5 -22 -9 -30 -4 -8 -8 -24
-10 -35 -5 -27 -55 -191 -74 -240 -8 -22 -14 -42 -14 -45 2 -8 -151 -475 -158
-480 -3 -3 -6 -9 -6 -15 0 -12 -45 -145 -54 -160 -3 -5 -7 -19 -8 -29 -2 -11
-7 -24 -12 -30 -5 -6 -19 -40 -31 -76 -36 -104 -152 -394 -161 -404 -5 -6 -9
-15 -9 -22 0 -7 -15 -45 -34 -86 -19 -40 -36 -80 -38 -88 -2 -8 -5 -17 -8 -20
-3 -3 -19 -34 -34 -70 -91 -206 -317 -640 -337 -648 -5 -2 -9 -8 -9 -14 0 -12
-133 -227 -161 -259 -10 -12 -19 -26 -19 -30 0 -4 -6 -14 -12 -21 -7 -7 -29
-36 -47 -63 -170 -246 -443 -518 -651 -649 -88 -56 -190 -109 -190 -99 0 4 -4
3 -8 -3 -13 -20 -201 -78 -297 -92 -92 -13 -369 -2 -398 15 -4 2 -20 7 -34 9
-172 31 -361 155 -447 292 -81 129 -110 297 -82 477 9 55 77 269 88 273 4 2 8
10 8 17 0 30 171 334 192 343 4 2 8 8 8 14 0 6 14 27 30 48 17 21 30 41 30 44
0 3 7 14 16 24 8 9 43 53 77 97 34 44 66 85 72 91 5 6 30 35 55 64 159 188
492 520 721 720 34 30 76 67 92 82 16 15 47 42 70 60 23 18 48 40 57 48 13 13
82 69 128 105 7 5 21 17 30 26 9 9 62 51 117 95 55 43 106 85 113 92 7 6 17
12 20 12 4 0 20 12 36 26 15 15 130 103 255 196 124 92 231 172 236 176 6 4
39 28 75 52 36 25 67 48 70 51 13 14 381 269 389 269 5 0 11 3 13 8 5 11 75
62 86 62 6 0 12 3 14 8 2 4 37 30 78 57 41 28 77 53 78 58 2 4 7 7 11 7 4 0
52 29 106 65 53 36 99 64 101 62 2 -2 -1 -17 -6 -33z"/>
</g>
</svg>
